<?xml version="1.0" encoding="utf-8"?>
<!-- Generator: Adobe Illustrator 25.2.1, SVG Export Plug-In . SVG Version: 6.00 Build 0)  -->
<svg version="1.1" id="Layer_1" xmlns="http://www.w3.org/2000/svg" xmlns:xlink="http://www.w3.org/1999/xlink" x="0px" y="0px"
	 width="246.6px" height="212.3px" viewBox="0 0 246.6 212.3" style="enable-background:new 0 0 246.6 212.3;" xml:space="preserve"
	>
<style type="text/css">
	.st0{fill:#FFFFFF;}
</style>
<g>
	<g>
		<path class="st0" d="M217.4,67.3c-2.2,9.1-11.8,18.8-22.3,25.9c0.3-0.9,0.5-1.8,0.8-2.7c4.1-13.5,8.3-27,12.5-40.5
			c4.8-0.6,7-2,7.1-2.1c1.9-5.7,3.9-11.5,5.8-17.2c0.8-2.3,1.6-4.7,2.4-7c0.8-2.3,1.6-4.7,2.4-7c-4-2-8.3-3.8-12.7-5.5
			c-0.7,2.4-1.4,4.9-2.2,7.3c-2.2-0.8-4.4-1.6-6.6-2.3c0.7-2.5,1.4-4.9,2-7.4c-4.6-1.5-9.3-2.9-14.1-4.2c-0.6,2.5-1.2,5.1-1.7,7.6
			c-2.4-0.6-4.8-1.2-7.2-1.7c0.5-2.6,1-5.1,1.6-7.7c-5-1.1-10.1-2.1-15.3-2.9c-0.4,2.6-0.8,5.2-1.2,7.8c-0.4,2.6-0.8,5.2-1.2,7.8
			c-1,6.4-1.9,12.7-2.9,19.1c0,0.1,1.7,2.7,6.1,5.8c-0.7,4.2-1.5,8.4-2.2,12.5c-11.3-1.8-23.1-2.9-35-3.3c-0.2,3.9-0.3,7.9-0.4,11.8
			c-6.4-0.2-12.8-0.2-19.1,0c-0.2-3.9-0.3-7.9-0.4-11.8c-11.9,0.4-23.7,1.5-35,3.3c-0.7-4.2-1.4-8.4-2.2-12.6
			c4.4-3.1,6.1-5.7,6.1-5.8c-0.9-6.4-1.9-12.7-2.9-19.1c-0.4-2.6-0.8-5.2-1.2-7.8c-0.4-2.6-0.8-5.2-1.2-7.8
			C72,0.7,66.9,1.7,61.9,2.8c0.5,2.6,1,5.1,1.6,7.7c-2.4,0.5-4.8,1.1-7.2,1.7c-0.6-2.5-1.2-5.1-1.7-7.6c-4.9,1.3-9.6,2.6-14.2,4.2
			c0.7,2.5,1.4,4.9,2,7.4c-2.2,0.7-4.4,1.5-6.6,2.3c-0.7-2.4-1.4-4.9-2.2-7.3c-4.4,1.7-8.6,3.5-12.7,5.5c0.8,2.3,1.6,4.7,2.4,7
			c0.8,2.3,1.6,4.7,2.4,7c1.9,5.7,3.9,11.5,5.8,17.2c0.1,0.1,2.3,1.5,7.1,2.1c3.7,11.9,7.4,23.9,11.1,35.8c0.7,2.4,1.5,4.8,2.2,7.3
			c-10.5-7.1-20.1-16.8-22.3-25.9c-9.4,6.4-27.3,3.1-29.4,30.1c4.2-7.2,11-5.9,18.5,8.1c1.9-8.1,10.8-7.1,19,2.4
			c-1.1-4.1-1.4-12.1,15.8-9.7c7.2,23.7,14.2,47.3,21.1,71c10.2,0,20.4,0,30.6,0c-1.2-10.7,0.7-19.4,4.3-19.5
			c3.7-0.1,6.9,8.7,7.3,19.5c4.4,0,8.9,0,13.3,0c0.4-10.8,3.6-19.6,7.3-19.5c3.7,0.1,5.6,8.8,4.3,19.5c10.2,0,20.4,0,30.6,0
			c6.9-23.7,13.9-47.3,21.1-71c17.1-2.4,16.9,5.7,15.8,9.7c8.2-9.5,17.1-10.5,19-2.4c7.5-14,14.3-15.4,18.5-8.1
			C244.6,70.4,226.8,73.7,217.4,67.3z M80.4,103.8c-10.4-10.9-15.7-29.5-8.6-43.3c-0.1,0.1,4.1,10.2,17.9,24.4
			c13.5,14.5,20.7,16.5,20.9,16.4C102.8,114.1,90.9,114.7,80.4,103.8z M166.6,103.8c-10.5,10.9-22.4,10.3-30.2-2.5
			c0.1,0.1,7.3-2,20.9-16.4c13.8-14.3,18.1-24.3,17.9-24.4C182.3,74.3,176.9,92.9,166.6,103.8z"/>
	</g>
	<g>
		<path class="st0" d="M218.6,207.8v0.7h-1.4v3.6h-0.9v-3.6H215v-0.7H218.6z M223.2,212.1l-0.2-2.5c0-0.3,0-0.7,0-1.2h0
			c-0.1,0.4-0.2,0.9-0.4,1.3l-0.8,2.4H221l-0.8-2.4c-0.1-0.3-0.2-0.8-0.3-1.2h0c0,0.4,0,0.8,0,1.2l-0.2,2.5h-0.8l0.3-4.3h1.3
			l0.7,2.1c0.1,0.3,0.2,0.6,0.3,1.1h0c0.1-0.4,0.2-0.8,0.3-1.1l0.7-2.1h1.2l0.3,4.3H223.2z"/>
	</g>
	<path class="st0" d="M86,172.7l-0.2,0.2c-7.4,7.5-15.3,15.2-23.5,22.7c5.7-7.3,11.9-14.7,18.4-22l0.8-0.9h-7.2l-44.6,39h8.5
		l19.4-18.3c-5,5.8-9.8,11.6-14.2,17.4l-0.7,0.9h8.7l0.2-0.1c6.5-5.9,12.8-11.9,18.8-17.9l-15,18.1h8.8l28.9-39H86z"/>
	<polygon class="st0" points="94.7,172.7 68.5,211.7 77.7,211.7 100.1,172.7 	"/>
	<path class="st0" d="M112.6,174.3c-0.9-1.1-2.2-1.6-3.9-1.6h-6.9l-19.7,39h13.2c8,0,12.9-3.4,14.1-9.8l4.1-19.2
		C114.2,178.7,114,175.9,112.6,174.3z M97.1,205.2h-3.3l10.6-26h2.3c0.6,0,0.8,0.2,0.9,0.3c0.2,0.2,0.4,0.9-0.2,2.7l-6.1,19.7
		C100.7,204.2,99.4,205.2,97.1,205.2z"/>
	<path class="st0" d="M134.7,199c-0.6-4-2.2-6.7-4.9-8.1c2-1.4,2.6-3.9,2.1-7.6l-0.2-1.4c-0.9-6.3-3.4-9.2-7.9-9.2h-6.7l-5.9,39
		h12.9c4.6,0,7.9-1.1,9.6-3.2c1.4-1.6,1.8-3.8,1.4-6.5L134.7,199z M121.1,194.6h2.2c2.3,0,3.4,0.6,3.6,4.1l0.2,3.3
		c0.1,1.2-0.1,2-0.6,2.4c-0.5,0.5-1.2,0.7-2.4,0.7h-3.6L121.1,194.6z M125.1,187.5c-0.4,0.4-1.1,0.6-2,0.6h-1.6l0.5-8.9h1.7
		c0.9,0,1.8,0.4,2,3.4l0.1,2.1C125.8,186,125.6,186.9,125.1,187.5z"/>
	<path class="st0" d="M150,182.1c-3.2-6.3-7.2-9.8-11.3-9.8c-1.6,0-2.9,0.5-3.8,1.6c-1.4,1.7-1.8,4.6-1.1,8.6l3.8,19.7
		c1.1,6.3,6.3,10,14.3,10c4.3,0,7.1-1,8.4-3.1c1.1-1.8,0.9-4.3-0.6-7.3L150,182.1z M152,205c-0.3,0.4-1,0.6-2,0.6
		c-2.3,0-3.7-1.1-4.3-3.3l-5.9-20.5c-0.5-1.8-0.3-2.5-0.1-2.7c0.1-0.1,0.2-0.3,0.9-0.3c1.3,0,2.4,1.1,3.3,3.4l8,20.5
		C152.1,203.4,152.4,204.4,152,205z"/>
	<path class="st0" d="M168.2,190.2c-4.6-2.6-8.7-4.9-10.9-8.6c-1.3-2.1-1.1-2.7-1.1-2.7c0.1-0.1,0.3-0.2,0.6-0.2
		c1.4,0,2.9,1.1,4.6,3.5l1.3,1.8h6.3l-1.7-2.1c-5.3-6.4-10.2-9.7-14.3-9.7c-1.5,0-2.6,0.5-3.2,1.5c-1,1.7-0.4,4.7,1.7,8.9
		c3.1,6.3,8.7,9.5,14.1,12.5c4,2.3,7.8,4.4,10.2,7.6c1.2,1.6,1.1,2.2,1,2.4c-0.1,0.3-0.7,0.5-1.6,0.5c-2.4,0-4.2-1.1-5.6-3.4l-1.8-3
		h-7.5l1.7,3.1c3.3,6.3,9.4,9.8,17.2,9.8c3.9,0,6.4-0.9,7.2-2.6c0.9-1.8-0.1-4.5-2.9-7.8C178.7,196.1,173.1,193,168.2,190.2z"/>
	<path class="st0" d="M206.9,201.6c-6.6-5.6-13.1-8.7-18.9-11.4c-5.5-2.6-10.3-4.9-13.7-8.6c-1.8-1.9-2-2.6-2-2.8c0,0,0.2,0,0.4,0
		c1.4,0,3.3,1.2,5.9,3.6l1.8,1.7h6.5l-2.5-2.2c-5.1-4.4-12.3-9.7-17.3-9.7c-1.4,0-2.3,0.4-2.7,1.3c-0.8,1.7,0.7,4.7,4.5,9.1
		c5.2,6.3,11.7,9.4,18.1,12.4c4.7,2.3,9.2,4.4,12.8,7.7c2,1.9,1.8,2.4,1.8,2.5c0,0.1-0.3,0.3-1.3,0.3c-2.4,0-4.6-1.2-6.9-3.5
		l-2.7-2.9h-7.8l2.8,3.2c5.3,6.3,12.5,9.7,20.2,9.7c3.7,0,5.8-0.8,6.3-2.3C212.8,207.9,211.1,205.3,206.9,201.6z"/>
</g>
</svg>
