<?xml version="1.0" encoding="utf-8"?>
<!-- Generator: Adobe Illustrator 25.2.1, SVG Export Plug-In . SVG Version: 6.00 Build 0)  -->
<svg version="1.1" id="Layer_1" xmlns="http://www.w3.org/2000/svg" xmlns:xlink="http://www.w3.org/1999/xlink" x="0px" y="0px"
	 width="182.4px" height="37.3px" viewBox="0 0 182.4 37.3" style="enable-background:new 0 0 182.4 37.3;" xml:space="preserve">
<style type="text/css">
	.st0{fill:#FFFFFF;}
</style>
<g>
	<g>
		<path class="st0" d="M176.8,33.3V34h-1.3v3.3h-0.8V34h-1.3v-0.7H176.8z M181.1,37.3l-0.1-2.3c0-0.3,0-0.7,0-1.1h0
			c-0.1,0.4-0.2,0.8-0.3,1.2l-0.7,2.2H179l-0.7-2.3c-0.1-0.3-0.2-0.8-0.3-1.1h0c0,0.4,0,0.7,0,1.1l-0.1,2.3H177l0.3-4h1.2l0.7,2
			c0.1,0.3,0.2,0.6,0.3,1h0c0.1-0.4,0.2-0.7,0.3-1l0.7-2h1.1l0.3,4H181.1z"/>
	</g>
	<path class="st0" d="M53.3,0.6l-0.1,0.2c-6.9,7-14.2,14.1-21.9,21.2c5.3-6.8,11.1-13.7,17.1-20.5l0.8-0.9h-6.7L1,36.9h7.9l18-17
		c-4.7,5.4-9.1,10.8-13.3,16.2L13,36.9h8.1l0.1-0.1c6.1-5.5,11.9-11.1,17.5-16.7l-14,16.8H33L59.9,0.6H53.3z"/>
	<polygon class="st0" points="61.4,0.6 37.1,36.9 45.6,36.9 66.5,0.6 	"/>
	<path class="st0" d="M78.1,2.1c-0.8-1-2-1.5-3.6-1.5h-6.4L49.7,36.9H62c7.4,0,12-3.2,13.1-9.1l3.8-17.9C79.6,6.2,79.4,3.6,78.1,2.1
		z M63.6,30.8h-3l9.9-24.2h2.1c0.6,0,0.8,0.2,0.8,0.3c0.2,0.2,0.4,0.8-0.1,2.5l-5.6,18.4C67,29.9,65.8,30.8,63.6,30.8z"/>
	<path class="st0" d="M98.6,25.1c-0.5-3.7-2.1-6.2-4.6-7.6c1.8-1.3,2.5-3.6,2-7.1l-0.2-1.3c-0.9-5.8-3.2-8.6-7.3-8.6h-6.3l-5.5,36.3
		h12c4.3,0,7.3-1,9-2.9c1.3-1.5,1.7-3.5,1.3-6L98.6,25.1z M86,21H88c2.1,0,3.2,0.6,3.4,3.8l0.2,3.1c0.1,1.1-0.1,1.8-0.5,2.3
		c-0.4,0.5-1.1,0.7-2.3,0.7h-3.3L86,21z M89.7,14.4c-0.4,0.4-1,0.6-1.9,0.6h-1.5l0.5-8.3h1.6c0.9,0,1.7,0.4,1.8,3.1l0.1,2
		C90.4,13,90.1,13.9,89.7,14.4z"/>
	<path class="st0" d="M112.9,9.3c-3-5.9-6.7-9.2-10.6-9.2c-1.5,0-2.7,0.5-3.6,1.5c-1.3,1.6-1.7,4.3-1,8l3.6,18.4
		c1,5.9,5.9,9.3,13.3,9.3c4,0,6.6-1,7.8-2.8c1-1.7,0.8-4-0.6-6.8L112.9,9.3z M114.8,30.7c-0.3,0.4-0.9,0.6-1.9,0.6
		c-2.2,0-3.4-1-4-3.1l-5.5-19.1c-0.5-1.7-0.3-2.3-0.1-2.5c0.1-0.1,0.2-0.3,0.8-0.3c1.3,0,2.3,1,3.1,3.2l7.4,19.1
		C114.9,29.2,115.1,30.1,114.8,30.7z"/>
	<path class="st0" d="M129.9,16.9c-4.3-2.4-8.1-4.5-10.1-8c-1.2-2-1.1-2.5-1-2.6c0-0.1,0.2-0.1,0.5-0.1c1.3,0,2.7,1.1,4.3,3.3
		l1.2,1.7h5.9l-1.6-2c-4.9-5.9-9.5-9.1-13.3-9.1c-1.4,0-2.4,0.5-3,1.4c-1,1.6-0.4,4.3,1.6,8.3c2.9,5.9,8.1,8.8,13.1,11.7
		c3.7,2.1,7.2,4.1,9.5,7.1c1.1,1.5,1,2,0.9,2.2c-0.1,0.3-0.7,0.4-1.5,0.4c-2.2,0-3.9-1-5.2-3.2l-1.7-2.8h-7l1.6,2.9
		c3,5.9,8.7,9.2,16,9.2c3.7,0,5.9-0.8,6.7-2.5c0.8-1.7-0.1-4.2-2.7-7.3C139.6,22.4,134.4,19.5,129.9,16.9z"/>
	<path class="st0" d="M165.9,27.5c-6.1-5.2-12.2-8.1-17.6-10.6c-5.1-2.4-9.6-4.5-12.8-8c-1.7-1.8-1.9-2.4-1.9-2.6c0,0,0.1,0,0.4,0
		c1.3,0,3.1,1.1,5.5,3.3l1.7,1.6h6.1l-2.3-2c-4.8-4.1-11.4-9-16.1-9c-1.3,0-2.2,0.4-2.6,1.2c-0.7,1.5,0.6,4.3,4.2,8.5
		c4.8,5.8,10.9,8.8,16.8,11.6c4.4,2.1,8.6,4.1,11.9,7.2c1.9,1.8,1.7,2.3,1.7,2.3c0,0.1-0.3,0.3-1.3,0.3c-2.2,0-4.3-1.1-6.4-3.3
		l-2.5-2.7h-7.2l2.6,3c4.9,5.8,11.6,9.1,18.8,9.1c3.4,0,5.4-0.7,5.9-2.1C171.4,33.4,169.8,30.9,165.9,27.5z"/>
</g>
</svg>
