<?xml version="1.0" encoding="utf-8"?>
<!-- Generator: Adobe Illustrator 25.2.1, SVG Export Plug-In . SVG Version: 6.00 Build 0)  -->
<svg version="1.1" id="Layer_1" xmlns="http://www.w3.org/2000/svg" xmlns:xlink="http://www.w3.org/1999/xlink" x="0px" y="0px"
	 width="282.8px" height="39.3px" viewBox="0 0 282.8 39.3" style="enable-background:new 0 0 282.8 39.3;" xml:space="preserve">
<style type="text/css">
	.st0{fill:#FFFFFF;}
</style>
<polygon class="st0" points="199.4,12.8 199.4,12.8 198.5,13.7 "/>
<polygon class="st0" points="196.2,22.1 196,20.9 196.2,22.1 "/>
<polygon class="st0" points="182.2,22.1 182.2,22.1 182.5,20.9 "/>
<polygon class="st0" points="179.1,12.8 180,13.7 179.1,12.8 "/>
<path class="st0" d="M195.7,16.9l3.7-4.1c1.3-1.2,0.9-2.5-0.9-2.7l-5.2-0.8l-2.6-4.7c-0.8-1.6-2.1-1.6-2.9,0l-2.6,4.7l-5.3,0.8
	c-1.8,0.2-2.2,1.5-0.9,2.7l3.7,4.1l-0.5,5.2c-0.3,1.8,0.8,2.5,2.3,1.7l4.6-2.2l4.6,2.2c1.6,0.8,2.6,0.1,2.3-1.7L195.7,16.9z"/>
<path class="st0" d="M254.5,14.1c-6.4,2.5-7.8,4.6-9.5,14.1c-1.7-9.5-3.1-11.6-9.5-14.1c6.4-2.5,7.8-4.6,9.5-14.1
	C246.7,9.6,248.1,11.6,254.5,14.1z"/>
<polygon class="st0" points="217.1,34.2 210.7,24.2 217.1,14.1 223.5,24.2 "/>
<path class="st0" d="M266.3,24.2c4.5-1.8,5.5-3.2,6.7-9.9l0,0c-5.5,0-9.9,4.4-9.9,9.9c0,5.5,4.4,9.9,9.9,9.9l0,0
	C271.7,27.4,270.8,25.9,266.3,24.2z"/>
<path class="st0" d="M272.9,14.3c1.2,6.7,2.2,8.1,6.7,9.9c-4.5,1.8-5.5,3.2-6.7,9.9c5.5,0,9.9-4.4,9.9-9.9
	C282.8,18.7,278.4,14.3,272.9,14.3z"/>
<g>
	<g>
		<path class="st0" d="M175.8,35.3V36h-1.3v3.3h-0.8V36h-1.3v-0.7H175.8z M180.1,39.3l-0.1-2.3c0-0.3,0-0.7,0-1.1h0
			c-0.1,0.4-0.2,0.8-0.3,1.2l-0.7,2.2H178l-0.7-2.3c-0.1-0.3-0.2-0.8-0.3-1.1h0c0,0.4,0,0.7,0,1.1l-0.1,2.3H176l0.3-4h1.2l0.7,2
			c0.1,0.3,0.2,0.6,0.3,1h0c0.1-0.4,0.2-0.7,0.3-1l0.7-2h1.1l0.3,4H180.1z"/>
	</g>
	<path class="st0" d="M52.3,2.6l-0.1,0.2c-6.9,7-14.2,14.1-21.9,21.2c5.3-6.8,11.1-13.7,17.1-20.5l0.8-0.9h-6.7L0,38.9h7.9l18-17
		c-4.7,5.4-9.1,10.8-13.3,16.2L12,38.9h8.1l0.1-0.1c6.1-5.5,11.9-11.1,17.5-16.7l-14,16.8H32L58.9,2.6H52.3z"/>
	<polygon class="st0" points="60.4,2.6 36.1,38.9 44.6,38.9 65.5,2.6 	"/>
	<path class="st0" d="M77.1,4.1c-0.8-1-2-1.5-3.6-1.5h-6.4L48.7,38.9H61c7.4,0,12-3.2,13.1-9.1l3.8-17.9C78.6,8.2,78.4,5.6,77.1,4.1
		z M62.6,32.9h-3l9.9-24.2h2.1c0.6,0,0.8,0.2,0.8,0.3c0.2,0.2,0.4,0.8-0.1,2.5l-5.6,18.4C66,31.9,64.8,32.9,62.6,32.9z"/>
	<path class="st0" d="M97.6,27.1c-0.5-3.7-2.1-6.2-4.6-7.6c1.8-1.3,2.5-3.6,2-7.1l-0.2-1.3c-0.9-5.8-3.2-8.6-7.3-8.6h-6.3l-5.5,36.3
		h12c4.3,0,7.3-1,9-2.9c1.3-1.5,1.7-3.5,1.3-6L97.6,27.1z M85,23H87c2.1,0,3.2,0.6,3.4,3.8l0.2,3.1c0.1,1.1-0.1,1.8-0.5,2.3
		c-0.4,0.5-1.1,0.7-2.3,0.7h-3.3L85,23z M88.7,16.4c-0.4,0.4-1,0.6-1.9,0.6h-1.5l0.5-8.3h1.6c0.9,0,1.7,0.4,1.8,3.1l0.1,2
		C89.4,15,89.1,15.9,88.7,16.4z"/>
	<path class="st0" d="M111.9,11.3c-3-5.9-6.7-9.2-10.6-9.2c-1.5,0-2.7,0.5-3.6,1.5c-1.3,1.6-1.7,4.3-1,8l3.6,18.4
		c1,5.9,5.9,9.3,13.3,9.3c4,0,6.6-1,7.8-2.8c1-1.7,0.8-4-0.6-6.8L111.9,11.3z M113.8,32.7c-0.3,0.4-0.9,0.6-1.9,0.6
		c-2.2,0-3.4-1-4-3.1l-5.5-19.1c-0.5-1.7-0.3-2.3-0.1-2.5c0.1-0.1,0.2-0.3,0.8-0.3c1.3,0,2.3,1,3.1,3.2l7.4,19.1
		C113.9,31.2,114.1,32.1,113.8,32.7z"/>
	<path class="st0" d="M128.9,18.9c-4.3-2.4-8.1-4.5-10.1-8c-1.2-2-1.1-2.5-1-2.6c0-0.1,0.2-0.1,0.5-0.1c1.3,0,2.7,1.1,4.3,3.3
		l1.2,1.7h5.9l-1.6-2c-4.9-5.9-9.5-9.1-13.3-9.1c-1.4,0-2.4,0.5-3,1.4c-1,1.6-0.4,4.3,1.6,8.3c2.9,5.9,8.1,8.8,13.1,11.7
		c3.7,2.1,7.2,4.1,9.5,7.1c1.1,1.5,1,2,0.9,2.2c-0.1,0.3-0.7,0.4-1.5,0.4c-2.2,0-3.9-1-5.2-3.2l-1.7-2.8h-7l1.6,2.9
		c3,5.9,8.7,9.2,16,9.2c3.7,0,5.9-0.8,6.7-2.5c0.8-1.7-0.1-4.2-2.7-7.3C138.6,24.4,133.4,21.5,128.9,18.9z"/>
	<path class="st0" d="M164.9,29.5c-6.1-5.2-12.2-8.1-17.6-10.6c-5.1-2.4-9.6-4.5-12.8-8c-1.7-1.8-1.9-2.4-1.9-2.6c0,0,0.1,0,0.4,0
		c1.3,0,3.1,1.1,5.5,3.3l1.7,1.6h6.1l-2.3-2c-4.8-4.1-11.4-9-16.1-9c-1.3,0-2.2,0.4-2.6,1.2c-0.7,1.5,0.6,4.3,4.2,8.5
		c4.8,5.8,10.9,8.8,16.8,11.6c4.4,2.1,8.6,4.1,11.9,7.2c1.9,1.8,1.7,2.3,1.7,2.3c0,0.1-0.3,0.3-1.3,0.3c-2.2,0-4.3-1.1-6.4-3.3
		l-2.5-2.7h-7.2l2.6,3c4.9,5.8,11.6,9.1,18.8,9.1c3.4,0,5.4-0.7,5.9-2.1C170.4,35.4,168.8,32.9,164.9,29.5z"/>
</g>
</svg>
